IKResults
version=1
nRows=230
nColumns=3
inDegrees=yes

Units are S.I. units (second, meters, Newtons, ...)
If the header above contains a line with 'inDegrees', this indicates whether rotational values are in degrees (yes) or radians (no).

endheader
time	r_shoulder_elev	r_elbow_flex
     44.10800000	      3.43701832	     75.81398418
     44.11700000	      3.43798638	     75.69333591
     44.12500000	      3.44006370	     75.57297888
     44.13300000	      3.44217938	     75.44932441
     44.14200000	      3.44416415	     75.32697713
     44.15000000	      3.44610865	     75.20034646
     44.15800000	      3.44584475	     75.07536080
     44.16700000	      3.44712659	     74.94681354
     44.17500000	      3.44751505	     74.81878287
     44.18300000	      3.45016410	     74.68566214
     44.19200000	      3.45258543	     74.55321046
     44.20000000	      3.45521298	     74.41941431
     44.20800000	      3.45753636	     74.28524776
     44.21700000	      3.45724409	     74.15661706
     44.22500000	      3.45443023	     74.02950603
     44.23300000	      3.44958678	     73.90598876
     44.24200000	      3.44383969	     73.78236968
     44.25000000	      3.43692495	     73.66179944
     44.25800000	      3.42894444	     73.54180249
     44.26700000	      3.42046127	     73.42486897
     44.27500000	      3.41046957	     73.31024334
     44.28300000	      3.39927499	     73.20035197
     44.29200000	      3.38813962	     73.09245424
     44.30000000	      3.37586287	     72.98925619
     44.30800000	      3.36320789	     72.88848805
     44.31700000	      3.35011456	     72.79137285
     44.32500000	      3.33612764	     72.69731221
     44.33300000	      3.32312376	     72.60423839
     44.34200000	      3.30983537	     72.51216533
     44.35000000	      3.29549036	     72.42439915
     44.35800000	      3.28253736	     72.33405195
     44.36700000	      3.27114044	     72.24455932
     44.37500000	      3.25975894	     72.15290364
     44.38300000	      3.24846664	     72.06267679
     44.39200000	      3.23907819	     71.96798404
     44.40000000	      3.22980966	     71.87414910
     44.40800000	      3.22091662	     71.78145727
     44.41700000	      3.21346445	     71.68888308
     44.42500000	      3.20638837	     71.59724672
     44.43300000	      3.19912377	     71.50842701
     44.44200000	      3.19304693	     71.41970772
     44.45000000	      3.18701197	     71.33273968
     44.45800000	      3.18079254	     71.24818350
     44.46700000	      3.17559456	     71.16163850
     44.47500000	      3.17076421	     71.07632222
     44.48300000	      3.16594940	     70.99164278
     44.49200000	      3.16162652	     70.90714017
     44.50000000	      3.15710134	     70.82385970
     44.50800000	      3.15308749	     70.74103740
     44.51700000	      3.14894680	     70.65783021
     44.52500000	      3.14503565	     70.57752117
     44.53300000	      3.14095876	     70.49600951
     44.54200000	      3.13661709	     70.41726053
     44.55000000	      3.13319358	     70.33686995
     44.55800000	      3.12960717	     70.26004002
     44.56700000	      3.12695250	     70.18380938
     44.57500000	      3.12427176	     70.10831074
     44.58300000	      3.12186880	     70.03560148
     44.59200000	      3.11957866	     69.96360425
     44.60000000	      3.11763099	     69.89398563
     44.60800000	      3.11721016	     69.82412846
     44.61700000	      3.11665053	     69.75620651
     44.62500000	      3.11547832	     69.69147460
     44.63300000	      3.11611816	     69.62376531
     44.64200000	      3.11679918	     69.55921383
     44.65000000	      3.11917498	     69.49620310
     44.65800000	      3.12188391	     69.43400998
     44.66700000	      3.12565217	     69.37077747
     44.67500000	      3.13245709	     69.29923190
     44.68300000	      3.13942077	     69.22713253
     44.69200000	      3.14687624	     69.15494099
     44.70000000	      3.15539216	     69.08486132
     44.70800000	      3.16525989	     69.01136695
     44.71700000	      3.17468076	     68.93741438
     44.72500000	      3.18603132	     68.85982804
     44.73300000	      3.19809993	     68.78048435
     44.74200000	      3.20956605	     68.70047605
     44.75000000	      3.22204893	     68.61859315
     44.75800000	      3.23537822	     68.53445192
     44.76700000	      3.24659806	     68.45114209
     44.77500000	      3.25961778	     68.36555393
     44.78300000	      3.27113483	     68.27995615
     44.79200000	      3.28301359	     68.19362608
     44.80000000	      3.29465266	     68.10949935
     44.80800000	      3.30718032	     68.01972097
     44.81700000	      3.32322610	     67.92119572
     44.82500000	      3.33994580	     67.81833009
     44.83300000	      3.35678654	     67.71583286
     44.84200000	      3.37365617	     67.61448750
     44.85000000	      3.38974242	     67.51304053
     44.85800000	      3.40556473	     67.41285141
     44.86700000	      3.42184735	     67.31111772
     44.87500000	      3.43775587	     67.20982170
     44.88300000	      3.45313593	     67.10722113
     44.89200000	      3.46766484	     67.00586949
     44.90000000	      3.48297654	     66.90172453
     44.90800000	      3.49715707	     66.79773726
     44.91700000	      3.51015819	     66.69431117
     44.92500000	      3.52285263	     66.58995002
     44.93300000	      3.53416018	     66.48737814
     44.94200000	      3.54402972	     66.38467173
     44.95000000	      3.55385553	     66.28259123
     44.95800000	      3.56376044	     66.18058007
     44.96700000	      3.57299238	     66.07864052
     44.97500000	      3.58266949	     65.97745348
     44.98300000	      3.59091177	     65.88008799
     44.99200000	      3.60053136	     65.78233918
     45.00000000	      3.60967480	     65.68497477
     45.00800000	      3.61989989	     65.58754179
     45.01700000	      3.63015109	     65.48993434
     45.02500000	      3.63988867	     65.39327200
     45.03300000	      3.65215323	     65.29212507
     45.04200000	      3.66535973	     65.18949509
     45.05000000	      3.67745009	     65.08980056
     45.05800000	      3.68925034	     64.99061641
     45.06700000	      3.70020633	     64.89504400
     45.07500000	      3.71073369	     64.79839304
     45.08300000	      3.72245612	     64.70083110
     45.09200000	      3.73266032	     64.60401962
     45.10000000	      3.74418723	     64.50606526
     45.10800000	      3.75609845	     64.40747069
     45.11700000	      3.76771013	     64.30961972
     45.12500000	      3.78080845	     64.20946296
     45.13300000	      3.79460563	     64.10870694
     45.14200000	      3.80890027	     64.00880477
     45.15000000	      3.82308600	     63.91098976
     45.15800000	      3.83714258	     63.81251357
     45.16700000	      3.85049070	     63.71351240
     45.17500000	      3.86441424	     63.61058431
     45.18300000	      3.87689468	     63.50868519
     45.19200000	      3.88983431	     63.40463733
     45.20000000	      3.90134781	     63.30115453
     45.20800000	      3.91382692	     63.19458753
     45.21700000	      3.92483138	     63.08909294
     45.22500000	      3.93481963	     62.98286138
     45.23300000	      3.94418571	     62.87578794
     45.24200000	      3.95303746	     62.76684293
     45.25000000	      3.96144558	     62.65806476
     45.25800000	      3.96894617	     62.54803557
     45.26700000	      3.97599615	     62.43775590
     45.27500000	      3.98183890	     62.32793687
     45.28300000	      3.98739149	     62.21763223
     45.29200000	      3.99183171	     62.10487929
     45.30000000	      4.00002378	     61.98065573
     45.30800000	      4.00848879	     61.85007319
     45.31700000	      4.01595170	     61.72219079
     45.32500000	      4.02187846	     61.59820649
     45.33300000	      4.02719082	     61.47659640
     45.34200000	      4.03080925	     61.36010615
     45.35000000	      4.03363877	     61.24873325
     45.35800000	      4.03537381	     61.13708135
     45.36700000	      4.03915757	     61.01969406
     45.37500000	      4.04280886	     60.90259722
     45.38300000	      4.04498509	     60.78930805
     45.39200000	      4.04889158	     60.66781401
     45.40000000	      4.05655211	     60.53618029
     45.40800000	      4.06410040	     60.40944142
     45.41700000	      4.07040758	     60.29133965
     45.42500000	      4.07461862	     60.18179639
     45.43300000	      4.07858473	     60.07519109
     45.44200000	      4.08260197	     59.97147058
     45.45000000	      4.08600312	     59.87185867
     45.45800000	      4.08991159	     59.77284575
     45.46700000	      4.09502700	     59.67352221
     45.47500000	      4.10081471	     59.57404441
     45.48300000	      4.10786120	     59.47485042
     45.49200000	      4.11627971	     59.37567510
     45.50000000	      4.12711550	     59.27529165
     45.50800000	      4.13862636	     59.17316363
     45.51700000	      4.15073236	     59.07331069
     45.52500000	      4.16494308	     58.96929831
     45.53300000	      4.17896023	     58.86958185
     45.54200000	      4.19565636	     58.76375123
     45.55000000	      4.21663752	     58.64448425
     45.55800000	      4.24059295	     58.51276798
     45.56700000	      4.26786480	     58.37171993
     45.57500000	      4.29594856	     58.22849344
     45.58300000	      4.32428640	     58.08576260
     45.59200000	      4.35144523	     57.94596650
     45.60000000	      4.37666559	     57.80986055
     45.60800000	      4.39966898	     57.67612550
     45.61700000	      4.42055963	     57.54989229
     45.62500000	      4.44005391	     57.42689928
     45.63300000	      4.45850788	     57.30756121
     45.64200000	      4.47419174	     57.19582488
     45.65000000	      4.48587610	     57.09025220
     45.65800000	      4.49589998	     56.99218342
     45.66700000	      4.50420767	     56.89522480
     45.67500000	      4.51256866	     56.79319478
     45.68300000	      4.52495475	     56.67626312
     45.69200000	      4.54005010	     56.54618416
     45.70000000	      4.55780543	     56.40163276
     45.70800000	      4.57863176	     56.24605516
     45.71700000	      4.59698442	     56.09688862
     45.72500000	      4.61304653	     55.95371476
     45.73300000	      4.62736029	     55.81545389
     45.74200000	      4.63891197	     55.68397840
     45.75000000	      4.65000136	     55.55488214
     45.75800000	      4.65878580	     55.43125935
     45.76700000	      4.66578767	     55.31126037
     45.77500000	      4.67170003	     55.19623822
     45.78300000	      4.67613258	     55.08657775
     45.79200000	      4.67750702	     54.98283892
     45.80000000	      4.68196735	     54.86897227
     45.80800000	      4.68849365	     54.74456398
     45.81700000	      4.69599647	     54.61403704
     45.82500000	      4.70665358	     54.47321522
     45.83300000	      4.71925885	     54.32484616
     45.84200000	      4.73371804	     54.16840437
     45.85000000	      4.75016923	     54.00366818
     45.85800000	      4.76445591	     53.84750345
     45.86700000	      4.77675480	     53.69729768
     45.87500000	      4.78724856	     53.55545468
     45.88300000	      4.79719364	     53.41670927
     45.89200000	      4.80599340	     53.28228809
     45.90000000	      4.81475518	     53.14808964
     45.90800000	      4.82237182	     53.01777163
     45.91700000	      4.82859183	     52.88823498
     45.92500000	      4.83307136	     52.76043683
     45.93300000	      4.83712493	     52.62958500
     45.94200000	      4.84198558	     52.49212153
     45.95000000	      4.84877512	     52.35633623
     45.95800000	      4.85661612	     52.23672032
     45.96700000	      4.86484018	     52.12939923
     45.97500000	      4.87521125	     52.01434646
     45.98300000	      4.88506958	     51.89369616
     45.99200000	      4.89531595	     51.76241300
     46.00000000	      4.90649277	     51.61940195
     46.00800000	      4.91885475	     51.47014803
     46.01700000	      4.92986501	     51.33379260
